<svg width="32" height="32" viewBox="0 0 32 32" fill="none" xmlns="http://www.w3.org/2000/svg">
<mask id="mask0_6001_15935" style="mask-type:alpha" maskUnits="userSpaceOnUse" x="0" y="0" width="32" height="32">
<rect width="31.5" height="31.5" fill="#D9D9D9"/>
</mask>
<g mask="url(#mask0_6001_15935)">
<path d="M17.0625 28.875C15.9469 28.875 14.8531 28.7219 13.7812 28.4156C12.7094 28.1094 11.7031 27.65 10.7625 27.0375L12.6656 25.1344C13.3438 25.5063 14.0547 25.7852 14.7984 25.9711C15.5422 26.157 16.2969 26.25 17.0625 26.25C19.6219 26.25 21.793 25.3586 23.5758 23.5758C25.3586 21.793 26.25 19.6219 26.25 17.0625C26.25 14.5031 25.3586 12.332 23.5758 10.5492C21.793 8.76641 19.6219 7.875 17.0625 7.875H16.8656L18.9 9.90938L17.0625 11.8125L11.8125 6.5625L17.0625 1.3125L18.9 3.21563L16.8656 5.25H17.0625C20.3438 5.25 23.1328 6.39844 25.4297 8.69531C27.7266 10.9922 28.875 13.7812 28.875 17.0625C28.875 18.7031 28.5633 20.2398 27.9398 21.6727C27.3164 23.1055 26.4742 24.3523 25.4133 25.4133C24.3523 26.4742 23.1055 27.3164 21.6727 27.9398C20.2398 28.5633 18.7031 28.875 17.0625 28.875ZM9.1875 24.9375L1.3125 17.0625L9.1875 9.1875L17.0625 17.0625L9.1875 24.9375ZM9.1875 21.1969L13.3219 17.0625L9.1875 12.9281L5.05313 17.0625L9.1875 21.1969Z" fill="white"/>
</g>
</svg>
