<svg width="34" height="33" viewBox="0 0 34 33" fill="none" xmlns="http://www.w3.org/2000/svg">
<mask id="mask0_6043_2482" style="mask-type:alpha" maskUnits="userSpaceOnUse" x="0" y="0" width="34" height="33">
<rect x="0.5" width="33" height="33" rx="1" fill="#D9D9D9"/>
</mask>
<g mask="url(#mask0_6043_2482)">
<path d="M11.2206 15.125C10.4396 15.125 9.96006 14.2699 10.3673 13.6035L16.1467 4.14628C16.5366 3.50821 17.4634 3.50821 17.8533 4.14628L23.6327 13.6036C24.0399 14.2699 23.5604 15.125 22.7794 15.125H11.2206ZM24.5625 30.25C22.8438 30.25 21.3828 29.6484 20.1797 28.4453C18.9766 27.2422 18.375 25.7812 18.375 24.0625C18.375 22.3438 18.9766 20.8828 20.1797 19.6797C21.3828 18.4766 22.8438 17.875 24.5625 17.875C26.2812 17.875 27.7422 18.4766 28.9453 19.6797C30.1484 20.8828 30.75 22.3438 30.75 24.0625C30.75 25.7812 30.1484 27.2422 28.9453 28.4453C27.7422 29.6484 26.2812 30.25 24.5625 30.25ZM5.625 29.5625C5.07271 29.5625 4.625 29.1148 4.625 28.5625V19.5625C4.625 19.0102 5.07272 18.5625 5.625 18.5625H14.625C15.1773 18.5625 15.625 19.0102 15.625 19.5625V28.5625C15.625 29.1148 15.1773 29.5625 14.625 29.5625H5.625ZM24.5625 27.5C25.525 27.5 26.3385 27.1677 27.0031 26.5031C27.6677 25.8385 28 25.025 28 24.0625C28 23.1 27.6677 22.2865 27.0031 21.6219C26.3385 20.9573 25.525 20.625 24.5625 20.625C23.6 20.625 22.7865 20.9573 22.1219 21.6219C21.4573 22.2865 21.125 23.1 21.125 24.0625C21.125 25.025 21.4573 25.8385 22.1219 26.5031C22.7865 27.1677 23.6 27.5 24.5625 27.5ZM7.375 25.8125C7.375 26.3648 7.82272 26.8125 8.375 26.8125H11.875C12.4273 26.8125 12.875 26.3648 12.875 25.8125V22.3125C12.875 21.7602 12.4273 21.3125 11.875 21.3125H8.375C7.82272 21.3125 7.375 21.7602 7.375 22.3125V25.8125ZM15.2636 10.8486C14.8512 11.5148 15.3304 12.375 16.1139 12.375H17.8861C18.6696 12.375 19.1488 11.5148 18.7364 10.8486L17.8503 9.41726C17.4593 8.78573 16.5407 8.78573 16.1497 9.41726L15.2636 10.8486Z" fill="white"/>
</g>
</svg>
