<svg width="20" height="19" viewBox="0 0 20 19" fill="none" xmlns="http://www.w3.org/2000/svg">
<g clip-path="url(#clip0_1466_9417)">
<path d="M9.73966 6.51085V11.7282M12.3484 9.11954H7.13097M17.5657 9.11954C17.5657 10.1473 17.3633 11.165 16.97 12.1145C16.5767 13.064 16.0003 13.9267 15.2735 14.6534C14.5468 15.3801 13.6841 15.9566 12.7346 16.3499C11.7851 16.7432 10.7674 16.9456 9.73966 16.9456C8.71193 16.9456 7.69425 16.7432 6.74475 16.3499C5.79524 15.9566 4.9325 15.3801 4.20578 14.6534C3.47906 13.9267 2.9026 13.064 2.5093 12.1145C2.116 11.165 1.91357 10.1473 1.91357 9.11954C1.91357 7.04394 2.73811 5.05334 4.20578 3.58566C5.67346 2.11799 7.66405 1.29346 9.73966 1.29346C11.8153 1.29346 13.8059 2.11799 15.2735 3.58566C16.7412 5.05334 17.5657 7.04394 17.5657 9.11954Z" stroke="white" stroke-width="1.5" stroke-linecap="round" stroke-linejoin="round"/>
</g>
<defs>
<clipPath id="clip0_1466_9417">
<rect width="20" height="18.2832" fill="white"/>
</clipPath>
</defs>
</svg>
