<svg width="42" height="42" viewBox="0 0 42 42" fill="none" xmlns="http://www.w3.org/2000/svg">
<mask id="mask0_6038_499" style="mask-type:alpha" maskUnits="userSpaceOnUse" x="0" y="0" width="42" height="42">
<rect width="42" height="42" rx="4" fill="#D9D9D9"/>
</mask>
<g mask="url(#mask0_6038_499)">
<path d="M22.3996 17.1143C21.6471 17.1143 21.0371 16.5042 21.0371 15.7517V15.0565C21.0371 13.9277 20.122 13.0127 18.9933 13.0127H18.3166C17.5616 13.0127 16.9494 12.4006 16.9494 11.6455C16.9494 10.8904 17.5616 10.2783 18.3166 10.2783H18.9933C20.122 10.2783 21.0371 9.36327 21.0371 8.2345V7.5393C21.0371 6.78679 21.6471 6.17676 22.3996 6.17676C23.1521 6.17676 23.7622 6.78679 23.7622 7.5393V8.2345C23.7622 9.36327 24.6772 10.2783 25.806 10.2783H26.4826C27.2377 10.2783 27.8498 10.8904 27.8498 11.6455C27.8498 12.4006 27.2377 13.0127 26.4826 13.0127H25.806C24.6772 13.0127 23.7622 13.9277 23.7622 15.0565V15.7517C23.7622 16.5042 23.1521 17.1143 22.3996 17.1143ZM15.5869 34.8877C14.8375 34.8877 14.196 34.62 13.6623 34.0845C13.1286 33.549 12.8618 32.9053 12.8618 32.1533C12.8618 31.4014 13.1286 30.7576 13.6623 30.2222C14.196 29.6867 14.8375 29.4189 15.5869 29.4189C16.3363 29.4189 16.9778 29.6867 17.5115 30.2222C18.0452 30.7576 18.312 31.4014 18.312 32.1533C18.312 32.9053 18.0452 33.549 17.5115 34.0845C16.9778 34.62 16.3363 34.8877 15.5869 34.8877ZM29.2124 34.8877C28.463 34.8877 27.8214 34.62 27.2878 34.0845C26.7541 33.549 26.4873 32.9053 26.4873 32.1533C26.4873 31.4014 26.7541 30.7576 27.2878 30.2222C27.8214 29.6867 28.463 29.4189 29.2124 29.4189C29.9618 29.4189 30.6033 29.6867 31.137 30.2222C31.6706 30.7576 31.9375 31.4014 31.9375 32.1533C31.9375 32.9053 31.6706 33.549 31.137 34.0845C30.6033 34.62 29.9618 34.8877 29.2124 34.8877ZM8.77881 10.2783C8.02373 10.2783 7.41162 9.66621 7.41162 8.91113C7.41162 8.15606 8.02373 7.54395 8.77881 7.54395H10.1416C11.199 7.54395 12.1614 8.15464 12.6116 9.11143L16.5839 17.5519C17.2437 18.9538 18.6537 19.8486 20.2031 19.8486H24.8484C26.3014 19.8486 27.6401 19.0607 28.3454 17.7904L32.1285 10.9772C32.368 10.5459 32.8226 10.2783 33.316 10.2783C34.3498 10.2783 35.0046 11.3873 34.5053 12.2926L29.6211 21.1475C29.3713 21.6032 29.0364 21.9564 28.6162 22.207C28.1961 22.4577 27.7363 22.583 27.2367 22.583H17.8954C17.3961 22.583 16.9365 22.8552 16.6965 23.293C16.1971 24.2042 16.8564 25.3174 17.8954 25.3174H30.5703C31.3253 25.3174 31.9375 25.9295 31.9375 26.6846C31.9375 27.4396 31.3253 28.0518 30.5703 28.0518H15.5869C14.565 28.0518 13.7872 27.6074 13.2535 26.7188C12.7199 25.8301 12.7028 24.93 13.2024 24.0186L14.0599 22.4571C14.6768 21.3338 14.7181 19.983 14.171 18.8241L10.588 11.2343C10.3125 10.6506 9.725 10.2783 9.07962 10.2783H8.77881Z" fill="white"/>
</g>
</svg>
