<svg width="68" height="68" viewBox="0 0 68 68" fill="none" xmlns="http://www.w3.org/2000/svg">
<mask id="mask0_6001_14193" style="mask-type:alpha" maskUnits="userSpaceOnUse" x="0" y="0" width="68" height="68">
<rect width="68" height="68" rx="5" fill="#D9D9D9"/>
</mask>
<g mask="url(#mask0_6001_14193)">
<path d="M10.6667 59.5C7.90526 59.5 5.66669 57.2614 5.66669 54.5V28C5.66669 26.4262 6.40766 24.9443 7.66669 24L25.3264 10.7552C27.1075 9.41942 29.5572 9.42215 31.3353 10.7619L40.8181 17.9071C41.8128 18.6566 41.3951 20.3407 40.2334 20.7896C38.3535 21.5159 36.1702 21.5543 34.5672 20.3329L31.3398 17.874C29.561 16.5187 27.0986 16.5094 25.3096 17.8511L13.3334 26.8333C12.0743 27.7776 11.3334 29.2595 11.3334 30.8333V48.8333C11.3334 51.5948 13.5719 53.8333 16.3334 53.8333H19.8334C21.3982 53.8333 22.6667 55.1019 22.6667 56.6667C22.6667 58.2315 21.3982 59.5 19.8334 59.5H10.6667ZM33.3334 59.5C30.5719 59.5 28.3334 57.2614 28.3334 54.5V54.1167C28.3334 53.125 28.5813 52.1924 29.0771 51.3187C29.5729 50.4451 30.2459 49.7486 31.0959 49.2292C33.2681 47.9542 35.5465 46.9861 37.9313 46.325C40.316 45.6639 42.7834 45.3333 45.3334 45.3333C47.8834 45.3333 50.3507 45.6639 52.7354 46.325C55.1202 46.9861 57.3986 47.9542 59.5709 49.2292C60.4209 49.7486 61.0938 50.4451 61.5896 51.3187C62.0854 52.1924 62.3334 53.125 62.3334 54.1167V54.5C62.3334 57.2614 60.0948 59.5 57.3334 59.5H33.3334ZM39.6667 51.7083C38.1702 52.0921 38.5532 53.8333 40.0981 53.8333H50.5686C52.1135 53.8333 52.4966 52.0921 51 51.7083C49.1584 51.2361 47.2695 51 45.3334 51C43.3972 51 41.5084 51.2361 39.6667 51.7083ZM45.3334 42.5C42.9722 42.5 40.9653 41.6736 39.3125 40.0208C37.6597 38.3681 36.8334 36.3611 36.8334 34C36.8334 31.6389 37.6597 29.6319 39.3125 27.9792C40.9653 26.3264 42.9722 25.5 45.3334 25.5C47.6945 25.5 49.7014 26.3264 51.3542 27.9792C53.007 29.6319 53.8334 31.6389 53.8334 34C53.8334 36.3611 53.007 38.3681 51.3542 40.0208C49.7014 41.6736 47.6945 42.5 45.3334 42.5ZM45.3334 36.8333C46.1361 36.8333 46.8091 36.5618 47.3521 36.0188C47.8952 35.4757 48.1667 34.8028 48.1667 34C48.1667 33.1972 47.8952 32.5243 47.3521 31.9813C46.8091 31.4382 46.1361 31.1667 45.3334 31.1667C44.5306 31.1667 43.8577 31.4382 43.3146 31.9813C42.7716 32.5243 42.5 33.1972 42.5 34C42.5 34.8028 42.7716 35.4757 43.3146 36.0188C43.8577 36.5618 44.5306 36.8333 45.3334 36.8333Z" fill="#FF894C"/>
</g>
</svg>
