<svg width="59" height="67" viewBox="0 0 59 67" fill="none" xmlns="http://www.w3.org/2000/svg">
<mask id="mask0_6001_14284" style="mask-type:alpha" maskUnits="userSpaceOnUse" x="0" y="0" width="59" height="67">
<rect width="59" height="67" rx="5" fill="#D9D9D9"/>
</mask>
<g mask="url(#mask0_6001_14284)">
<path d="M41.8566 51.363C39.8658 53.6238 36.3426 53.6238 34.3517 51.363L29.1594 45.4667C28.3002 44.4909 28.3002 43.0285 29.1594 42.0527C30.1879 40.8848 32.0079 40.8848 33.0364 42.0527L34.601 43.8295C36.4596 45.9401 39.7487 45.9401 41.6073 43.8295L50.0553 34.236C51.0837 33.0681 52.9038 33.0681 53.9322 34.236C54.7915 35.2118 54.7915 36.6742 53.9322 37.65L41.8566 51.363ZM51.625 25.4587C51.625 26.8164 50.5244 27.917 49.1667 27.917C47.809 27.917 46.7083 26.8164 46.7083 25.4587V16.417C46.7083 15.0593 45.6077 13.9587 44.25 13.9587C42.8923 13.9587 41.7917 15.0593 41.7917 16.417V18.1462C41.7917 20.4589 39.9169 22.3337 37.6042 22.3337H21.3958C19.0831 22.3337 17.2083 20.4589 17.2083 18.1462V16.417C17.2083 15.0593 16.1077 13.9587 14.75 13.9587C13.3923 13.9587 12.2917 15.0593 12.2917 16.417V48.042C12.2917 50.8034 14.5302 53.042 17.2917 53.042H24.25C25.7918 53.042 27.0417 54.2919 27.0417 55.8337C27.0417 57.3755 25.7918 58.6253 24.25 58.6253H12.2917C10.9396 58.6253 9.78212 58.0786 8.81927 56.9852C7.85642 55.8918 7.375 54.5774 7.375 53.042V13.9587C7.375 12.4232 7.85642 11.1088 8.81927 10.0154C9.78212 8.92203 10.9396 8.37533 12.2917 8.37533H18.7511C20.9988 8.37533 22.8448 6.71709 24.3981 5.09229C24.644 4.835 24.9107 4.59167 25.1979 4.3623C26.509 3.31543 27.9431 2.79199 29.5 2.79199C31.1389 2.79199 32.6037 3.31543 33.8943 4.3623C34.1743 4.58943 34.4345 4.83023 34.675 5.08473C36.2188 6.71855 38.0626 8.37533 40.3104 8.37533H46.7083C48.0604 8.37533 49.2179 8.92203 50.1807 10.0154C51.1436 11.1088 51.625 12.4232 51.625 13.9587V25.4587ZM29.5 13.9587C30.1965 13.9587 30.7804 13.6911 31.2516 13.1561C31.7227 12.621 31.9583 11.958 31.9583 11.167C31.9583 10.376 31.7227 9.713 31.2516 9.17793C30.7804 8.64286 30.1965 8.37533 29.5 8.37533C28.8035 8.37533 28.2196 8.64286 27.7484 9.17793C27.2773 9.713 27.0417 10.376 27.0417 11.167C27.0417 11.958 27.2773 12.621 27.7484 13.1561C28.2196 13.6911 28.8035 13.9587 29.5 13.9587Z" fill="#FF894C"/>
</g>
</svg>
