<svg width="24" height="24" viewBox="0 0 24 24" fill="none" xmlns="http://www.w3.org/2000/svg">
<path fill-rule="evenodd" clip-rule="evenodd" d="M16.5 3.97795V4.20495C17.799 4.32373 19.0927 4.49454 20.378 4.71695C20.4751 4.73376 20.5678 4.76952 20.6511 4.82218C20.7343 4.87485 20.8063 4.9434 20.8631 5.02391C20.9198 5.10441 20.9601 5.19531 20.9817 5.2914C21.0033 5.38749 21.0058 5.4869 20.989 5.58395C20.9722 5.68099 20.9364 5.77378 20.8838 5.85701C20.8311 5.94023 20.7626 6.01227 20.682 6.06901C20.6015 6.12575 20.5106 6.16607 20.4146 6.18768C20.3185 6.20929 20.2191 6.21176 20.122 6.19495L19.913 6.15995L18.908 19.2299C18.8501 19.9835 18.5098 20.6875 17.9553 21.201C17.4008 21.7146 16.6728 21.9999 15.917 21.9999H8.08401C7.3282 21.9999 6.60026 21.7146 6.04573 21.201C5.4912 20.6875 5.15095 19.9835 5.09301 19.2299L4.08701 6.15995L3.87801 6.19495C3.78096 6.21176 3.68155 6.20929 3.58546 6.18768C3.48937 6.16607 3.39847 6.12575 3.31796 6.06901C3.15537 5.95442 3.04495 5.77994 3.01101 5.58395C2.97706 5.38795 3.02236 5.1865 3.13694 5.02391C3.25153 4.86131 3.42601 4.7509 3.62201 4.71695C4.90727 4.49427 6.20099 4.32347 7.50001 4.20495V3.97795C7.50001 2.41395 8.71301 1.07795 10.316 1.02695C11.4387 0.991017 12.5623 0.991017 13.685 1.02695C15.288 1.07795 16.5 2.41395 16.5 3.97795ZM10.364 2.52595C11.4547 2.49106 12.5463 2.49106 13.637 2.52595C14.39 2.54995 15 3.18395 15 3.97795V4.09095C13.0018 3.96959 10.9982 3.96959 9.00001 4.09095V3.97795C9.00001 3.18395 9.60901 2.54995 10.364 2.52595ZM10.009 8.47095C10.0052 8.37246 9.98203 8.27568 9.94082 8.18614C9.89961 8.09661 9.84117 8.01606 9.76883 7.94911C9.69649 7.88216 9.61168 7.83011 9.51923 7.79594C9.42678 7.76177 9.3285 7.74614 9.23001 7.74995C9.13152 7.75376 9.03474 7.77693 8.9452 7.81814C8.85567 7.85935 8.77512 7.91779 8.70817 7.99012C8.64122 8.06246 8.58917 8.14728 8.555 8.23973C8.52083 8.33218 8.5052 8.43046 8.50901 8.52895L8.85601 17.5289C8.8637 17.7277 8.95004 17.9153 9.09604 18.0504C9.16833 18.1173 9.25309 18.1693 9.34548 18.2035C9.43787 18.2376 9.53608 18.2533 9.63451 18.2494C9.73293 18.2456 9.82964 18.2225 9.91912 18.1813C10.0086 18.1401 10.0891 18.0817 10.156 18.0094C10.2229 17.9371 10.2749 17.8524 10.3091 17.76C10.3432 17.6676 10.3588 17.5694 10.355 17.4709L10.009 8.47095ZM15.489 8.52895C15.4963 8.42857 15.4834 8.32773 15.4509 8.23246C15.4185 8.13719 15.3672 8.04942 15.3001 7.97439C15.233 7.89936 15.1515 7.8386 15.0604 7.79574C14.9694 7.75287 14.8706 7.72877 14.77 7.72488C14.6694 7.72098 14.5691 7.73737 14.475 7.77307C14.3809 7.80877 14.2949 7.86304 14.2222 7.93266C14.1496 8.00227 14.0916 8.08581 14.0519 8.17829C14.0122 8.27077 13.9915 8.3703 13.991 8.47095L13.644 17.4709C13.6363 17.6699 13.708 17.8637 13.8432 18.0098C13.9784 18.1559 14.1661 18.2423 14.365 18.2499C14.5639 18.2576 14.7577 18.186 14.9038 18.0508C15.0499 17.9156 15.1363 17.7279 15.144 17.5289L15.489 8.52895Z" fill="#BB271A"/>
</svg>
