<svg width="29" height="29" viewBox="0 0 29 29" fill="none" xmlns="http://www.w3.org/2000/svg">
<mask id="mask0_6038_412" style="mask-type:alpha" maskUnits="userSpaceOnUse" x="0" y="0" width="29" height="29">
<rect x="0.754883" width="28.1323" height="28.1323" rx="7" fill="#D9D9D9"/>
</mask>
<g mask="url(#mask0_6038_412)">
<path d="M8.96038 24.6158C8.31568 24.6158 7.76378 24.3863 7.30468 23.9271C6.84558 23.468 6.61603 22.9161 6.61603 22.2714V7.61922C6.61603 7.29554 6.35362 7.03313 6.02994 7.03313C5.70625 7.03313 5.44385 6.77073 5.44385 6.44705V5.86096C5.44385 5.21358 5.96865 4.68878 6.61603 4.68878H10.7186C11.0423 4.68878 11.3047 4.42638 11.3047 4.10269C11.3047 3.779 11.5671 3.5166 11.8908 3.5166H17.7517C18.0754 3.5166 18.3378 3.779 18.3378 4.10269C18.3378 4.42638 18.6002 4.68878 18.9239 4.68878H23.0265C23.6739 4.68878 24.1987 5.21358 24.1987 5.86096V6.44705C24.1987 6.77073 23.9363 7.03313 23.6126 7.03313C23.2889 7.03313 23.0265 7.29554 23.0265 7.61922V22.2714C23.0265 22.9161 22.797 23.468 22.3379 23.9271C21.8788 24.3863 21.3269 24.6158 20.6822 24.6158H8.96038ZM20.6822 12.894C20.6822 9.65714 18.0582 7.03313 14.8213 7.03313C11.5844 7.03313 8.96038 9.65714 8.96038 12.894V16.4106C8.96038 19.6474 11.5844 22.2714 14.8213 22.2714C18.0582 22.2714 20.6822 19.6474 20.6822 16.4106V12.894ZM11.3047 18.7549C11.3047 19.4023 11.8295 19.9271 12.4769 19.9271C13.1243 19.9271 13.6491 19.4023 13.6491 18.7549V10.5497C13.6491 9.90229 13.1243 9.37749 12.4769 9.37749C11.8295 9.37749 11.3047 9.90229 11.3047 10.5497V18.7549ZM15.9934 18.7549C15.9934 19.4023 16.5183 19.9271 17.1656 19.9271C17.813 19.9271 18.3378 19.4023 18.3378 18.7549V10.5497C18.3378 9.90229 17.813 9.37749 17.1656 9.37749C16.5183 9.37749 15.9934 9.90229 15.9934 10.5497V18.7549Z" fill="#BB271A"/>
</g>
</svg>
