<svg width="23" height="23" viewBox="0 0 23 23" fill="none" xmlns="http://www.w3.org/2000/svg">
<path d="M16.6366 3.83219L18.5012 2.01435C18.8899 1.63562 19.417 1.42285 19.9667 1.42285C20.5164 1.42285 21.0436 1.63562 21.4323 2.01435C21.821 2.39308 22.0394 2.90674 22.0394 3.44235C22.0394 3.97795 21.821 4.49162 21.4323 4.87035L9.69553 16.3062C9.11121 16.8752 8.39062 17.2934 7.59885 17.5231L4.63122 18.3847L5.51543 15.4931C5.75116 14.7216 6.18039 14.0195 6.76438 13.4502L16.6366 3.83219ZM16.6366 3.83219L19.5523 6.67312M17.8944 14.077V19.1923C17.8944 19.835 17.6324 20.4513 17.166 20.9057C16.6996 21.3601 16.0671 21.6154 15.4075 21.6154H3.80227C3.14272 21.6154 2.51018 21.3601 2.04381 20.9057C1.57744 20.4513 1.31543 19.835 1.31543 19.1923V7.88466C1.31543 7.24202 1.57744 6.6257 2.04381 6.17128C2.51018 5.71687 3.14272 5.46158 3.80227 5.46158H9.05227" stroke="#236EB6" stroke-width="1.5" stroke-linecap="round" stroke-linejoin="round"/>
</svg>
