<svg width="24" height="24" viewBox="0 0 24 24" fill="none" xmlns="http://www.w3.org/2000/svg">
<mask id="mask0_6038_406" style="mask-type:alpha" maskUnits="userSpaceOnUse" x="0" y="0" width="24" height="24">
<rect x="0.245117" y="0.549805" width="23.0326" height="23.0326" rx="7" fill="#D9D9D9"/>
</mask>
<g mask="url(#mask0_6038_406)">
<path d="M4.08394 23.5825C3.02389 23.5825 2.16455 22.7232 2.16455 21.6631C2.16455 20.6031 3.02389 19.7437 4.08394 19.7437H19.439C20.4991 19.7437 21.3584 20.6031 21.3584 21.6631C21.3584 22.7232 20.4991 23.5825 19.439 23.5825H4.08394ZM6.00332 14.9543C6.00332 15.4793 6.42896 15.9049 6.954 15.9049C7.20561 15.9049 7.44696 15.8052 7.62516 15.6276L14.1476 9.12601C14.5257 8.74915 14.5262 8.13701 14.1487 7.75955C13.7713 7.38208 13.1591 7.38258 12.7823 7.76065L6.28069 14.2831C6.10307 14.4613 6.00332 14.7027 6.00332 14.9543ZM6.96762 17.8243C5.37553 17.8243 4.08394 16.5337 4.08394 14.9416C4.08394 14.1759 4.38854 13.4417 4.93055 12.9009L14.8325 3.02106C15.0084 2.84512 15.2124 2.70916 15.4443 2.61319C15.6762 2.51722 15.9202 2.46924 16.1761 2.46924C16.432 2.46924 16.6799 2.51722 16.9198 2.61319C17.1598 2.70916 17.3757 2.85312 17.5676 3.04505L18.8872 4.38863C19.0791 4.56457 19.2191 4.7725 19.3071 5.01243C19.395 5.25235 19.439 5.50027 19.439 5.75619C19.439 5.99611 19.395 6.23204 19.3071 6.46396C19.2191 6.69589 19.0791 6.90782 18.8872 7.09976L9.00736 16.9796C8.46649 17.5205 7.73252 17.8243 6.96762 17.8243Z" fill="#0A3F71"/>
</g>
</svg>
