<svg width="21" height="23" viewBox="0 0 21 23" fill="none" xmlns="http://www.w3.org/2000/svg">
<path d="M7.10909 11.3628H11.4727M7.10909 14.5513H11.4727M7.10909 17.7399H11.4727M14.9636 18.537H17.5818C18.2762 18.537 18.9421 18.2851 19.4332 17.8366C19.9242 17.3881 20.2 16.7799 20.2 16.1456V5.10048C20.2 3.89414 19.2167 2.87062 17.9007 2.77071C17.4654 2.73774 17.0298 2.7094 16.5939 2.68568M16.5939 2.68568C16.6711 2.91428 16.7092 3.15218 16.7091 3.39141C16.7091 3.60283 16.6171 3.80558 16.4535 3.95508C16.2898 4.10457 16.0678 4.18855 15.8364 4.18855H10.6C10.1183 4.18855 9.72727 3.83143 9.72727 3.39141C9.72727 3.1459 9.768 2.90888 9.84364 2.68568M16.5939 2.68568C16.2646 1.70998 15.2685 1 14.0909 1H12.3455C11.786 1.00012 11.2413 1.16383 10.7911 1.46716C10.3409 1.7705 10.0089 2.19751 9.84364 2.68568M9.84364 2.68568C9.40611 2.71013 8.97091 2.73882 8.53571 2.77071C7.21964 2.87062 6.23636 3.89414 6.23636 5.10048V7.3771M6.23636 7.3771H2.30909C1.58647 7.3771 1 7.91278 1 8.57281V20.5299C1 21.1899 1.58647 21.7256 2.30909 21.7256H13.6545C14.3772 21.7256 14.9636 21.1899 14.9636 20.5299V8.57281C14.9636 7.91278 14.3772 7.3771 13.6545 7.3771H6.23636ZM4.49091 11.3628H4.50022V11.3713H4.49091V11.3628ZM4.49091 14.5513H4.50022V14.5598H4.49091V14.5513ZM4.49091 17.7399H4.50022V17.7484H4.49091V17.7399Z" stroke="white" stroke-width="1.5" stroke-linecap="round" stroke-linejoin="round"/>
</svg>
