<svg width="67" height="67" viewBox="0 0 67 67" fill="none" xmlns="http://www.w3.org/2000/svg">
<mask id="mask0_6001_14274" style="mask-type:alpha" maskUnits="userSpaceOnUse" x="0" y="0" width="67" height="67">
<rect width="67" height="67" rx="3" fill="#D9D9D9"/>
</mask>
<g mask="url(#mask0_6001_14274)">
<path d="M8.375 58.625C6.8332 58.625 5.58333 57.3751 5.58333 55.8333C5.58333 54.2915 6.8332 53.0417 8.37499 53.0417H58.625C60.1668 53.0417 61.4167 54.2915 61.4167 55.8333C61.4167 57.3751 60.1668 58.625 58.625 58.625H8.375ZM11.375 50.25C9.71814 50.25 8.37499 48.9069 8.37499 47.25V33.7083C8.37499 32.0515 9.71814 30.7083 11.375 30.7083H13.75C15.4068 30.7083 16.75 32.0515 16.75 33.7083V47.25C16.75 48.9069 15.4068 50.25 13.75 50.25H11.375ZM25.3333 50.25C23.6765 50.25 22.3333 48.9069 22.3333 47.25V19.75C22.3333 18.0931 23.6765 16.75 25.3333 16.75H27.7083C29.3652 16.75 30.7083 18.0931 30.7083 19.75V47.25C30.7083 48.9069 29.3652 50.25 27.7083 50.25H25.3333ZM39.2917 50.25C37.6348 50.25 36.2917 48.9069 36.2917 47.25V28.125C36.2917 26.4681 37.6348 25.125 39.2917 25.125H41.6667C43.3235 25.125 44.6667 26.4681 44.6667 28.125V47.25C44.6667 48.9069 43.3235 50.25 41.6667 50.25H39.2917ZM53.25 50.25C51.5931 50.25 50.25 48.9069 50.25 47.25V11.375C50.25 9.71815 51.5931 8.375 53.25 8.375H55.625C57.2818 8.375 58.625 9.71815 58.625 11.375V47.25C58.625 48.9069 57.2818 50.25 55.625 50.25H53.25Z" fill="#FF894C"/>
</g>
</svg>
