<svg width="33" height="33" viewBox="0 0 33 33" fill="none" xmlns="http://www.w3.org/2000/svg">
<mask id="mask0_6001_14121" style="mask-type:alpha" maskUnits="userSpaceOnUse" x="0" y="0" width="33" height="33">
<rect width="33" height="33" fill="#D9D9D9"/>
</mask>
<g mask="url(#mask0_6001_14121)">
<path d="M8.25 30.25C7.49375 30.25 6.84635 29.9807 6.30781 29.4422C5.76927 28.9036 5.5 28.2563 5.5 27.5V13.75C5.5 12.9937 5.76927 12.3464 6.30781 11.8078C6.84635 11.2693 7.49375 11 8.25 11H9.625V8.25C9.625 6.34792 10.2953 4.72656 11.6359 3.38594C12.9766 2.04531 14.5979 1.375 16.5 1.375C18.4021 1.375 20.0234 2.04531 21.3641 3.38594C22.7047 4.72656 23.375 6.34792 23.375 8.25V11H24.75C25.5063 11 26.1536 11.2693 26.6922 11.8078C27.2307 12.3464 27.5 12.9937 27.5 13.75V27.5C27.5 28.2563 27.2307 28.9036 26.6922 29.4422C26.1536 29.9807 25.5063 30.25 24.75 30.25H8.25ZM8.25 27.5H24.75V13.75H8.25V27.5ZM16.5 23.375C17.2563 23.375 17.9036 23.1057 18.4422 22.5672C18.9807 22.0286 19.25 21.3813 19.25 20.625C19.25 19.8687 18.9807 19.2214 18.4422 18.6828C17.9036 18.1443 17.2563 17.875 16.5 17.875C15.7437 17.875 15.0964 18.1443 14.5578 18.6828C14.0193 19.2214 13.75 19.8687 13.75 20.625C13.75 21.3813 14.0193 22.0286 14.5578 22.5672C15.0964 23.1057 15.7437 23.375 16.5 23.375ZM12.375 11H20.625V8.25C20.625 7.10417 20.224 6.13021 19.4219 5.32812C18.6198 4.52604 17.6458 4.125 16.5 4.125C15.3542 4.125 14.3802 4.52604 13.5781 5.32812C12.776 6.13021 12.375 7.10417 12.375 8.25V11Z" fill="#908D8D"/>
</g>
</svg>
