<svg width="62" height="62" viewBox="0 0 62 62" fill="none" xmlns="http://www.w3.org/2000/svg">
<mask id="mask0_6001_14295" style="mask-type:alpha" maskUnits="userSpaceOnUse" x="0" y="0" width="62" height="62">
<rect width="62" height="62" fill="#D9D9D9"/>
</mask>
<g mask="url(#mask0_6001_14295)">
<path d="M15.1125 44.1748C17.3084 42.4957 19.7625 41.1717 22.475 40.203C25.1875 39.2342 28.0292 38.7498 31 38.7498C33.9709 38.7498 36.8125 39.2342 39.525 40.203C42.2375 41.1717 44.6917 42.4957 46.8875 44.1748C48.3945 42.4096 49.5677 40.4075 50.4073 38.1686C51.2469 35.9297 51.6667 33.5401 51.6667 30.9998C51.6667 25.2734 49.6538 20.3974 45.6281 16.3717C41.6025 12.346 36.7264 10.3332 31 10.3332C25.2736 10.3332 20.3976 12.346 16.3719 16.3717C12.3462 20.3974 10.3334 25.2734 10.3334 30.9998C10.3334 33.5401 10.7531 35.9297 11.5927 38.1686C12.4323 40.4075 13.6056 42.4096 15.1125 44.1748ZM31 33.5832C28.4597 33.5832 26.3177 32.7113 24.574 30.9675C22.8302 29.2238 21.9584 27.0818 21.9584 24.5415C21.9584 22.0012 22.8302 19.8592 24.574 18.1155C26.3177 16.3717 28.4597 15.4998 31 15.4998C33.5403 15.4998 35.6823 16.3717 37.4261 18.1155C39.1698 19.8592 40.0417 22.0012 40.0417 24.5415C40.0417 27.0818 39.1698 29.2238 37.4261 30.9675C35.6823 32.7113 33.5403 33.5832 31 33.5832ZM31 56.8332C27.4264 56.8332 24.0681 56.155 20.925 54.7988C17.782 53.4425 15.0479 51.6019 12.7229 49.2769C10.3979 46.9519 8.55731 44.2179 7.20106 41.0748C5.84481 37.9318 5.16669 34.5735 5.16669 30.9998C5.16669 27.4262 5.84481 24.0679 7.20106 20.9248C8.55731 17.7818 10.3979 15.0478 12.7229 12.7228C15.0479 10.3978 17.782 8.55713 20.925 7.20088C24.0681 5.84463 27.4264 5.1665 31 5.1665C34.5736 5.1665 37.932 5.84463 41.075 7.20088C44.2181 8.55713 46.9521 10.3978 49.2771 12.7228C51.6021 15.0478 53.4427 17.7818 54.799 20.9248C56.1552 24.0679 56.8334 27.4262 56.8334 30.9998C56.8334 34.5735 56.1552 37.9318 54.799 41.0748C53.4427 44.2179 51.6021 46.9519 49.2771 49.2769C46.9521 51.6019 44.2181 53.4425 41.075 54.7988C37.932 56.155 34.5736 56.8332 31 56.8332ZM31 51.6665C33.282 51.6665 35.4347 51.3328 37.4584 50.6655C39.482 49.9981 41.3334 49.0401 43.0125 47.7915C41.3334 46.5429 39.482 45.5849 37.4584 44.9175C35.4347 44.2502 33.282 43.9165 31 43.9165C28.7181 43.9165 26.5653 44.2502 24.5417 44.9175C22.5181 45.5849 20.6667 46.5429 18.9875 47.7915C20.6667 49.0401 22.5181 49.9981 24.5417 50.6655C26.5653 51.3328 28.7181 51.6665 31 51.6665ZM31 28.4165C32.1195 28.4165 33.0452 28.0505 33.7771 27.3186C34.5091 26.5866 34.875 25.6609 34.875 24.5415C34.875 23.4221 34.5091 22.4964 33.7771 21.7644C33.0452 21.0325 32.1195 20.6665 31 20.6665C29.8806 20.6665 28.9549 21.0325 28.2229 21.7644C27.491 22.4964 27.125 23.4221 27.125 24.5415C27.125 25.6609 27.491 26.5866 28.2229 27.3186C28.9549 28.0505 29.8806 28.4165 31 28.4165Z" fill="#FF894C"/>
</g>
</svg>
