<svg width="24" height="24" viewBox="0 0 24 24" fill="none" xmlns="http://www.w3.org/2000/svg">
<path d="M17.6953 9.51758C16.4648 9.51758 15.5078 8.56055 15.5078 7.33008C15.5078 6.12695 16.4648 5.14258 17.6953 5.14258C18.8984 5.14258 19.8828 6.12695 19.8828 7.33008C19.8828 8.56055 18.8984 9.51758 17.6953 9.51758ZM7.19531 9.51758C5.96484 9.51758 5.00781 8.56055 5.00781 7.33008C5.00781 6.12695 5.96484 5.14258 7.19531 5.14258C8.39844 5.14258 9.38281 6.12695 9.38281 7.33008C9.38281 8.56055 8.39844 9.51758 7.19531 9.51758ZM12.418 13.8926C10.8594 13.8926 9.57422 12.6348 9.60156 11.0488C9.60156 9.49023 10.8594 8.20508 12.418 8.20508C13.9766 8.20508 15.2617 9.49023 15.2617 11.0488C15.2617 12.6348 14.0039 13.8926 12.418 13.8926ZM13.7578 16.0801C13.7578 17.3379 14.332 18.4316 15.2344 19.1426H7.96094C7.52344 19.1426 7.19531 18.8418 7.19531 18.4316C7.19531 16.4082 8.91797 14.7676 11.0781 14.7676H13.7852C13.8672 14.7676 13.9219 14.7949 13.9766 14.7949C13.8398 15.2051 13.7578 15.6426 13.7578 16.0801ZM8.69922 11.0488C8.69922 11.9785 9.05469 12.8262 9.62891 13.4551H4.16016C3.88672 13.4551 3.69531 13.2363 3.69531 12.9629C3.69531 11.541 4.76172 10.3926 6.10156 10.3926H7.76953C8.125 10.3926 8.45312 10.4746 8.75391 10.6387C8.72656 10.7754 8.69922 10.9121 8.69922 11.0488ZM18.7617 10.3926C20.1016 10.3926 21.1953 11.541 21.1953 12.9629C21.1953 13.2363 20.9766 13.4551 20.7031 13.4551H20.5938C19.8828 12.6621 18.8438 12.1426 17.6953 12.1426C16.9844 12.1426 16.3281 12.3613 15.7539 12.6895C16 12.1973 16.1367 11.6504 16.1367 11.0488C16.1367 10.9121 16.1094 10.7754 16.1094 10.6387C16.4102 10.502 16.7383 10.3926 17.0938 10.3926H18.7617ZM20.5938 15.1777C20.6211 15.2598 20.5938 15.3145 20.5391 15.3418L20.0195 15.6426C20.0742 15.916 20.0742 16.2168 20.0195 16.4902L20.5391 16.8184C20.5938 16.8457 20.6211 16.9004 20.5938 16.9824C20.457 17.4199 20.2383 17.8301 19.9375 18.1582C19.8828 18.2129 19.8008 18.2129 19.7461 18.1855L19.2266 17.8848C19.0078 18.0762 18.7344 18.2129 18.4609 18.2949V18.9238C18.4609 18.9785 18.4336 19.0332 18.3516 19.0605C17.9141 19.1699 17.4492 19.1699 17.0117 19.0605C16.9297 19.0332 16.9023 18.9785 16.9023 18.9238V18.2949C16.6289 18.2129 16.3555 18.0762 16.1367 17.8848L15.6172 18.1855C15.5625 18.2129 15.4805 18.2129 15.4258 18.1582C15.125 17.8027 14.8789 17.4199 14.7695 16.9824C14.7422 16.9004 14.7695 16.8457 14.8242 16.8184L15.3438 16.4902C15.2891 16.2168 15.2891 15.916 15.3438 15.6426L14.8242 15.3418C14.7695 15.2871 14.7422 15.2324 14.7695 15.1504C14.8789 14.7129 15.125 14.3301 15.4258 14.002C15.4805 13.9473 15.5625 13.9199 15.6172 13.9746L16.1367 14.2754C16.3555 14.084 16.6289 13.9199 16.9023 13.8379V13.2363C16.9023 13.1816 16.9297 13.127 16.9844 13.0723C17.4219 12.9902 17.8867 12.9902 18.3242 13.0723C18.4062 13.0996 18.4609 13.1543 18.4609 13.2363V13.8652C18.7344 13.9473 18.9805 14.1113 19.1992 14.3027L19.7188 13.9746C19.7734 13.9473 19.8555 13.9746 19.9102 14.002C20.2109 14.3574 20.457 14.7402 20.5938 15.1777ZM17.6953 16.9551C18.1602 16.9551 18.5703 16.5723 18.5703 16.0801C18.5703 15.6152 18.1602 15.2051 17.6953 15.2051C17.2031 15.2051 16.8203 15.6152 16.8203 16.0801C16.8203 16.5723 17.2031 16.9551 17.6953 16.9551Z" fill="white"/>
</svg>
