<svg width="18" height="16" viewBox="0 0 18 16" fill="none" xmlns="http://www.w3.org/2000/svg">
<path d="M12.3522 5.79019H16.5122L13.8613 3.13769C13.0079 2.28425 11.9448 1.67052 10.779 1.3582C9.61318 1.04588 8.38567 1.04597 7.21989 1.35846C6.0541 1.67096 4.99113 2.28485 4.13783 3.13842C3.28452 3.99198 2.67096 5.05515 2.35883 6.22103M1.48716 14.3702V10.2102M1.48716 10.2102H5.64716M1.48716 10.2102L4.13716 12.8627C4.99059 13.7161 6.05366 14.3299 7.21948 14.6422C8.38531 14.9545 9.61282 14.9544 10.7786 14.6419C11.9444 14.3294 13.0074 13.7155 13.8607 12.862C14.714 12.0084 15.3275 10.9452 15.6397 9.77936M16.5122 1.63019V5.78853" stroke="white" stroke-width="1.5" stroke-linecap="round" stroke-linejoin="round"/>
</svg>
