<svg width="62" height="62" viewBox="0 0 62 62" fill="none" xmlns="http://www.w3.org/2000/svg">
<mask id="mask0_6045_4767" style="mask-type:alpha" maskUnits="userSpaceOnUse" x="0" y="0" width="62" height="62">
<rect width="62" height="62" fill="#D9D9D9"/>
</mask>
<g mask="url(#mask0_6045_4767)">
<mask id="mask1_6045_4767" style="mask-type:alpha" maskUnits="userSpaceOnUse" x="3" y="0" width="57" height="57">
<rect x="3" width="57" height="57" rx="1" fill="#D9D9D9"/>
</mask>
<g mask="url(#mask1_6045_4767)">
<path d="M20.2206 26.125C19.4396 26.125 18.9601 25.2699 19.3673 24.6035L30.6467 6.14628C31.0366 5.50821 31.9634 5.50821 32.3533 6.14628L43.6327 24.6035C44.0399 25.2699 43.5604 26.125 42.7794 26.125H20.2206ZM44.5625 52.25C41.5938 52.25 39.0703 51.2109 36.9922 49.1328C34.9141 47.0547 33.875 44.5312 33.875 41.5625C33.875 38.5938 34.9141 36.0703 36.9922 33.9922C39.0703 31.9141 41.5938 30.875 44.5625 30.875C47.5312 30.875 50.0547 31.9141 52.1328 33.9922C54.2109 36.0703 55.25 38.5938 55.25 41.5625C55.25 44.5312 54.2109 47.0547 52.1328 49.1328C50.0547 51.2109 47.5312 52.25 44.5625 52.25ZM11.125 51.0625C10.5727 51.0625 10.125 50.6148 10.125 50.0625V33.0625C10.125 32.5102 10.5727 32.0625 11.125 32.0625H28.125C28.6773 32.0625 29.125 32.5102 29.125 33.0625V50.0625C29.125 50.6148 28.6773 51.0625 28.125 51.0625H11.125ZM44.5625 47.5C46.225 47.5 47.6302 46.926 48.7781 45.7781C49.926 44.6302 50.5 43.225 50.5 41.5625C50.5 39.9 49.926 38.4948 48.7781 37.3469C47.6302 36.199 46.225 35.625 44.5625 35.625C42.9 35.625 41.4948 36.199 40.3469 37.3469C39.199 38.4948 38.625 39.9 38.625 41.5625C38.625 43.225 39.199 44.6302 40.3469 45.7781C41.4948 46.926 42.9 47.5 44.5625 47.5ZM14.875 45.3125C14.875 45.8648 15.3227 46.3125 15.875 46.3125H23.375C23.9273 46.3125 24.375 45.8648 24.375 45.3125V37.8125C24.375 37.2602 23.9273 36.8125 23.375 36.8125H15.875C15.3227 36.8125 14.875 37.2602 14.875 37.8125V45.3125ZM27.8136 19.8486C27.4012 20.5148 27.8804 21.375 28.6639 21.375H34.3361C35.1196 21.375 35.5988 20.5148 35.1864 19.8486L32.3503 15.2673C31.9593 14.6357 31.0407 14.6357 30.6497 15.2673L27.8136 19.8486Z" fill="#FF894C"/>
</g>
</g>
</svg>
