<svg width="20" height="20" viewBox="0 0 20 20" fill="none" xmlns="http://www.w3.org/2000/svg">
<path d="M10.0003 0.166504C9.28696 0.166504 8.70866 0.744803 8.70866 1.45817V11.0641C8.70866 12.8459 6.55438 13.7383 5.29445 12.4783L2.39567 9.57956C1.8887 9.07259 1.06562 9.07623 0.563158 9.58767C0.0669414 10.0927 0.0705284 10.9034 0.571195 11.404L8.58611 19.419C9.36716 20.2 10.6335 20.2 11.4145 19.419L19.4295 11.404C19.9301 10.9034 19.9337 10.0927 19.4375 9.58767C18.935 9.07623 18.1119 9.07259 17.605 9.57956L14.7062 12.4783C13.4463 13.7383 11.292 12.8459 11.292 11.0641V1.45817C11.292 0.744803 10.7137 0.166504 10.0003 0.166504Z" fill="#625F5F"/>
</svg>
