<svg width="30" height="33" viewBox="0 0 30 33" fill="none" xmlns="http://www.w3.org/2000/svg">
<mask id="mask0_6043_2826" style="mask-type:alpha" maskUnits="userSpaceOnUse" x="0" y="0" width="30" height="33">
<rect width="30" height="33" fill="#D9D9D9"/>
</mask>
<g mask="url(#mask0_6043_2826)">
<path d="M21.5938 27.8438L25.9375 23.1L24.625 21.6562L21.5938 24.9219L20.375 23.5813L19.0625 25.0594L21.5938 27.8438ZM7.5 12.375H22.5V9.625H7.5V12.375ZM22.5 31.625C20.7708 31.625 19.2969 30.9547 18.0781 29.6141C16.8594 28.2734 16.25 26.6521 16.25 24.75C16.25 22.8479 16.8594 21.2266 18.0781 19.8859C19.2969 18.5453 20.7708 17.875 22.5 17.875C24.2292 17.875 25.7031 18.5453 26.9219 19.8859C28.1406 21.2266 28.75 22.8479 28.75 24.75C28.75 26.6521 28.1406 28.2734 26.9219 29.6141C25.7031 30.9547 24.2292 31.625 22.5 31.625ZM3.75 30.25V6.875C3.75 6.11875 3.99479 5.47135 4.48438 4.93281C4.97396 4.39427 5.5625 4.125 6.25 4.125H23.75C24.4375 4.125 25.026 4.39427 25.5156 4.93281C26.0052 5.47135 26.25 6.11875 26.25 6.875V16.0531C25.8542 15.8469 25.4479 15.675 25.0312 15.5375C24.6146 15.4 24.1875 15.2969 23.75 15.2281V6.875H6.25V26.1938H13.8437C13.9479 26.9042 14.1094 27.5802 14.3281 28.2219C14.5469 28.8635 14.8333 29.4708 15.1875 30.0438L15 30.25L13.125 28.1875L11.25 30.25L9.375 28.1875L7.5 30.25L5.625 28.1875L3.75 30.25ZM7.5 23.375H13.8437C13.9062 22.8938 14 22.424 14.125 21.9656C14.25 21.5073 14.4063 21.0604 14.5938 20.625H7.5V23.375ZM7.5 17.875H16.375C17.1667 17.0271 18.0885 16.3568 19.1406 15.8641C20.1927 15.3714 21.3125 15.125 22.5 15.125H7.5V17.875Z" fill="#625F5F"/>
</g>
</svg>
