<svg width="34" height="34" viewBox="0 0 34 34" fill="none" xmlns="http://www.w3.org/2000/svg">
<mask id="mask0_6043_2809" style="mask-type:alpha" maskUnits="userSpaceOnUse" x="0" y="0" width="34" height="34">
<path d="M0 0H32C33.1046 0 34 0.895431 34 2V32C34 33.1046 33.1046 34 32 34H2C0.89543 34 0 33.1046 0 32V0Z" fill="#D9D9D9"/>
</mask>
<g mask="url(#mask0_6043_2809)">
<path d="M9.58203 29.75C8.47746 29.75 7.58203 28.8546 7.58203 27.75V13.7822C7.58203 13.1347 7.89556 12.5272 8.42339 12.152L18.3829 5.07348C19.0766 4.58042 20.0064 4.58042 20.7002 5.07348L30.6596 12.152C31.1875 12.5272 31.501 13.1347 31.501 13.7822V27.75C31.501 28.8546 30.6056 29.75 29.501 29.75H24.5314C23.4268 29.75 22.5314 28.8546 22.5314 27.75V21.8333C22.5314 20.7288 21.636 19.8333 20.5314 19.8333H18.5516C17.4471 19.8333 16.5516 20.7288 16.5516 21.8333V27.75C16.5516 28.8546 15.6562 29.75 14.5516 29.75H9.58203Z" fill="#625F5F"/>
</g>
</svg>
