<svg width="29" height="29" viewBox="0 0 29 29" fill="none" xmlns="http://www.w3.org/2000/svg">
<mask id="mask0_6043_2838" style="mask-type:alpha" maskUnits="userSpaceOnUse" x="0" y="0" width="29" height="29">
<rect width="29" height="29" fill="#D9D9D9"/>
</mask>
<g mask="url(#mask0_6043_2838)">
<path d="M18.7292 24.0762L13.5938 18.9408L15.2854 17.2491L18.7292 20.6929L25.5563 13.8658L27.2479 15.5575L18.7292 24.0762ZM25.375 12.0835H22.9583V6.04183H20.5417V9.66683H8.45833V6.04183H6.04167V22.9585H13.2917V25.3752H6.04167C5.37708 25.3752 4.80816 25.1385 4.3349 24.6653C3.86163 24.192 3.625 23.6231 3.625 22.9585V6.04183C3.625 5.37725 3.86163 4.80832 4.3349 4.33506C4.80816 3.86179 5.37708 3.62516 6.04167 3.62516H11.0865C11.308 2.9203 11.741 2.34131 12.3854 1.88818C13.0299 1.43506 13.7347 1.2085 14.5 1.2085C15.3056 1.2085 16.0255 1.43506 16.6599 1.88818C17.2943 2.34131 17.7222 2.9203 17.9438 3.62516H22.9583C23.6229 3.62516 24.1918 3.86179 24.6651 4.33506C25.1384 4.80832 25.375 5.37725 25.375 6.04183V12.0835ZM14.5 6.04183C14.8424 6.04183 15.1293 5.92603 15.3609 5.69443C15.5925 5.46284 15.7083 5.17586 15.7083 4.8335C15.7083 4.49113 15.5925 4.20416 15.3609 3.97256C15.1293 3.74096 14.8424 3.62516 14.5 3.62516C14.1576 3.62516 13.8707 3.74096 13.6391 3.97256C13.4075 4.20416 13.2917 4.49113 13.2917 4.8335C13.2917 5.17586 13.4075 5.46284 13.6391 5.69443C13.8707 5.92603 14.1576 6.04183 14.5 6.04183Z" fill="#625F5F"/>
</g>
</svg>
