<svg width="35" height="28" viewBox="0 0 35 28" fill="none" xmlns="http://www.w3.org/2000/svg">
<path d="M27.3333 15.375V11.9583H34.1667V15.375H27.3333ZM29.3833 27.3333L23.9167 23.2333L25.9667 20.5L31.4333 24.6L29.3833 27.3333ZM25.9667 6.83333L23.9167 4.1L29.3833 0L31.4333 2.73333L25.9667 6.83333ZM5.125 25.625V18.7917H3.41667C2.47708 18.7917 1.67274 18.4571 1.00365 17.788C0.334549 17.1189 0 16.3146 0 15.375V11.9583C0 11.0188 0.334549 10.2144 1.00365 9.54531C1.67274 8.87622 2.47708 8.54167 3.41667 8.54167H10.25L18.7917 3.41667V23.9167L10.25 18.7917H8.54167V25.625H5.125ZM15.375 17.8521V9.48125L11.1896 11.9583H3.41667V15.375H11.1896L15.375 17.8521ZM20.5 19.3896V7.94375C21.2688 8.62708 21.888 9.4599 22.3578 10.4422C22.8276 11.4245 23.0625 12.4993 23.0625 13.6667C23.0625 14.834 22.8276 15.9089 22.3578 16.8911C21.888 17.8734 21.2688 18.7063 20.5 19.3896Z" fill="#625F5F"/>
</svg>
