<svg width="30" height="29" viewBox="0 0 30 29" fill="none" xmlns="http://www.w3.org/2000/svg">
<mask id="mask0_6021_431" style="mask-type:alpha" maskUnits="userSpaceOnUse" x="-2" y="0" width="32" height="31">
<rect width="31" height="31" rx="2" transform="matrix(1 0 0 -1 -1.5 31)" fill="#D9D9D9"/>
</mask>
<g mask="url(#mask0_6021_431)">
<path d="M14.0003 25.8335C13.287 25.8335 12.7087 25.2552 12.7087 24.5418V14.9359C12.7087 13.1541 10.5544 12.2617 9.29445 13.5217L6.39567 16.4204C5.8887 16.9274 5.06562 16.9238 4.56316 16.4123C4.06694 15.9073 4.07053 15.0966 4.57119 14.596L12.5861 6.58105C13.3672 5.8 14.6335 5.8 15.4145 6.58104L23.4295 14.596C23.9301 15.0966 23.9337 15.9073 23.4375 16.4123C22.935 16.9238 22.1119 16.9274 21.605 16.4204L18.7062 13.5217C17.4463 12.2617 15.292 13.1541 15.292 14.9359V24.5418C15.292 25.2552 14.7137 25.8335 14.0003 25.8335Z" fill="#625F5F"/>
</g>
</svg>
