<svg width="21" height="23" viewBox="0 0 21 23" fill="none" xmlns="http://www.w3.org/2000/svg">
<path d="M14.6784 9.9375V5.0625C14.6784 3.98506 14.2504 2.95175 13.4885 2.18988C12.7266 1.42801 11.6933 1 10.6159 1C9.53845 1 8.50513 1.42801 7.74327 2.18988C6.9814 2.95175 6.55339 3.98506 6.55339 5.0625V9.9375M18.8557 7.77842L20.224 20.7784C20.2998 21.4988 19.7365 22.125 19.0117 22.125H2.22006C2.04911 22.1252 1.88005 22.0894 1.72383 22.02C1.56762 21.9506 1.42776 21.8491 1.31333 21.7221C1.1989 21.5951 1.11247 21.4454 1.05965 21.2829C1.00683 21.1203 0.988793 20.9484 1.00672 20.7784L2.37606 7.77842C2.40764 7.47894 2.54898 7.20176 2.77283 7.00032C2.99667 6.79888 3.28717 6.68745 3.58831 6.6875H17.6435C18.2675 6.6875 18.7907 7.15875 18.8557 7.77842ZM6.95964 9.9375C6.95964 10.0452 6.91684 10.1486 6.84065 10.2248C6.76447 10.3009 6.66113 10.3438 6.55339 10.3438C6.44565 10.3438 6.34231 10.3009 6.26613 10.2248C6.18994 10.1486 6.14714 10.0452 6.14714 9.9375C6.14714 9.82976 6.18994 9.72642 6.26613 9.65024C6.34231 9.57405 6.44565 9.53125 6.55339 9.53125C6.66113 9.53125 6.76447 9.57405 6.84065 9.65024C6.91684 9.72642 6.95964 9.82976 6.95964 9.9375ZM15.0846 9.9375C15.0846 10.0452 15.0418 10.1486 14.9657 10.2248C14.8895 10.3009 14.7861 10.3438 14.6784 10.3438C14.5706 10.3438 14.4673 10.3009 14.3911 10.2248C14.3149 10.1486 14.2721 10.0452 14.2721 9.9375C14.2721 9.82976 14.3149 9.72642 14.3911 9.65024C14.4673 9.57405 14.5706 9.53125 14.6784 9.53125C14.7861 9.53125 14.8895 9.57405 14.9657 9.65024C15.0418 9.72642 15.0846 9.82976 15.0846 9.9375Z" stroke="#838181" stroke-width="1.5" stroke-linecap="round" stroke-linejoin="round"/>
</svg>
