<svg width="24" height="24" viewBox="0 0 24 24" fill="none" xmlns="http://www.w3.org/2000/svg">
<g clip-path="url(#clip0_1445_1963)">
<path d="M9.27932 17.5005C9.27932 17.8983 9.12128 18.2798 8.83998 18.5611C8.55867 18.8424 8.17714 19.0005 7.77932 19.0005C7.38149 19.0005 6.99996 18.8424 6.71866 18.5611C6.43735 18.2798 6.27932 17.8983 6.27932 17.5005M9.27932 17.5005C9.27932 17.1027 9.12128 16.7211 8.83998 16.4398C8.55867 16.1585 8.17714 16.0005 7.77932 16.0005C7.38149 16.0005 6.99996 16.1585 6.71866 16.4398C6.43735 16.7211 6.27932 17.1027 6.27932 17.5005M9.27932 17.5005H15.2793M6.27932 17.5005H4.40432C4.10595 17.5005 3.8198 17.382 3.60882 17.171C3.39784 16.96 3.27932 16.6738 3.27932 16.3755V13.0005M15.2793 17.5005H17.5293M15.2793 17.5005V13.0005M3.27932 13.0005V5.36548C3.27773 5.09165 3.37778 4.82696 3.5601 4.62265C3.74243 4.41835 3.99407 4.28894 4.26632 4.25948C7.59936 3.91351 10.9593 3.91351 14.2923 4.25948C14.8573 4.31748 15.2793 4.79748 15.2793 5.36548V6.32348M3.27932 13.0005H15.2793M20.5293 17.5005C20.5293 17.8983 20.3713 18.2798 20.09 18.5611C19.8087 18.8424 19.4271 19.0005 19.0293 19.0005C18.6315 19.0005 18.25 18.8424 17.9687 18.5611C17.6874 18.2798 17.5293 17.8983 17.5293 17.5005M20.5293 17.5005C20.5293 17.1027 20.3713 16.7211 20.09 16.4398C19.8087 16.1585 19.4271 16.0005 19.0293 16.0005C18.6315 16.0005 18.25 16.1585 17.9687 16.4398C17.6874 16.7211 17.5293 17.1027 17.5293 17.5005M20.5293 17.5005H21.6543C22.2753 17.5005 22.7833 16.9965 22.7443 16.3765C22.5434 13.0741 21.4312 9.89204 19.5313 7.18348C19.3504 6.92976 19.1141 6.7205 18.8404 6.57151C18.5666 6.42252 18.2626 6.33771 17.9513 6.32348H15.2793M15.2793 6.32348V13.0005" stroke="#838181" stroke-width="1.5" stroke-linecap="round" stroke-linejoin="round"/>
</g>
<defs>
<clipPath id="clip0_1445_1963">
<rect width="23.6471" height="24" fill="white"/>
</clipPath>
</defs>
</svg>
