<svg width="21" height="18" viewBox="0 0 21 18" fill="none" xmlns="http://www.w3.org/2000/svg">
<path d="M13.5 6H17.1949M13.5 9H17.1949M13.5 12H17.1949M3.15441 16.5H17.9338C18.5218 16.5 19.0857 16.2629 19.5014 15.841C19.9172 15.419 20.1507 14.8467 20.1507 14.25V3.75C20.1507 3.15326 19.9172 2.58097 19.5014 2.15901C19.0857 1.73705 18.5218 1.5 17.9338 1.5H3.15441C2.56645 1.5 2.00257 1.73705 1.58682 2.15901C1.17107 2.58097 0.9375 3.15326 0.9375 3.75V14.25C0.9375 14.8467 1.17107 15.419 1.58682 15.841C2.00257 16.2629 2.56645 16.5 3.15441 16.5ZM9.06618 6.375C9.06618 6.62123 9.01839 6.86505 8.92555 7.09253C8.83271 7.32002 8.69663 7.52672 8.52508 7.70083C8.35353 7.87494 8.14987 8.01305 7.92573 8.10727C7.70159 8.2015 7.46136 8.25 7.21875 8.25C6.97614 8.25 6.73591 8.2015 6.51177 8.10727C6.28763 8.01305 6.08397 7.87494 5.91242 7.70083C5.74087 7.52672 5.60479 7.32002 5.51195 7.09253C5.41911 6.86505 5.37132 6.62123 5.37132 6.375C5.37132 5.87772 5.56596 5.40081 5.91242 5.04918C6.25888 4.69754 6.72878 4.5 7.21875 4.5C7.70872 4.5 8.17862 4.69754 8.52508 5.04918C8.87154 5.40081 9.06618 5.87772 9.06618 6.375ZM10.3411 12.711C9.3798 13.2307 8.30698 13.5017 7.21776 13.5C6.12921 13.5014 5.05711 13.2304 4.09635 12.711C4.33113 12.0622 4.75644 11.5023 5.31483 11.1067C5.87322 10.7111 6.53778 10.499 7.21875 10.499C7.89972 10.499 8.56428 10.7111 9.12267 11.1067C9.68106 11.5023 10.1064 12.0622 10.3411 12.711Z" stroke="#737373" stroke-width="1.5" stroke-linecap="round" stroke-linejoin="round"/>
</svg>
