<svg width="25" height="24" viewBox="0 0 25 24" fill="none" xmlns="http://www.w3.org/2000/svg">
<path d="M2.9375 8.25H22.1507M2.9375 9H22.1507M5.89338 14.25H11.8051M5.89338 16.5H8.84926M5.15441 19.5H19.9338C20.5218 19.5 21.0857 19.2629 21.5014 18.841C21.9172 18.419 22.1507 17.8467 22.1507 17.25V6.75C22.1507 6.15326 21.9172 5.58097 21.5014 5.15901C21.0857 4.73705 20.5218 4.5 19.9338 4.5H5.15441C4.56645 4.5 4.00257 4.73705 3.58682 5.15901C3.17107 5.58097 2.9375 6.15326 2.9375 6.75V17.25C2.9375 17.8467 3.17107 18.419 3.58682 18.841C4.00257 19.2629 4.56645 19.5 5.15441 19.5Z" stroke="#838181" stroke-width="1.5" stroke-linecap="round" stroke-linejoin="round"/>
</svg>
