<svg width="34" height="34" viewBox="0 0 34 34" fill="none" xmlns="http://www.w3.org/2000/svg">
<mask id="mask0_6001_14518" style="mask-type:alpha" maskUnits="userSpaceOnUse" x="0" y="0" width="34" height="34">
<path d="M0 0H32C33.1046 0 34 0.895431 34 2V32C34 33.1046 33.1046 34 32 34H2C0.89543 34 0 33.1046 0 32V0Z" fill="#D9D9D9"/>
</mask>
<g mask="url(#mask0_6001_14518)">
<path d="M9.58197 29.75C8.4774 29.75 7.58197 28.8546 7.58197 27.75V13.7822C7.58197 13.1347 7.8955 12.5272 8.42333 12.152L18.3828 5.07348C19.0766 4.58042 20.0064 4.58042 20.7001 5.07348L30.6596 12.152C31.1874 12.5272 31.5009 13.1347 31.5009 13.7822V27.75C31.5009 28.8546 30.6055 29.75 29.5009 29.75H24.5313C23.4268 29.75 22.5313 28.8546 22.5313 27.75V21.8333C22.5313 20.7288 21.6359 19.8333 20.5313 19.8333H18.5516C17.447 19.8333 16.5516 20.7288 16.5516 21.8333V27.75C16.5516 28.8546 15.6562 29.75 14.5516 29.75H9.58197Z" fill="#625F5F"/>
</g>
</svg>
