<svg width="24" height="24" viewBox="0 0 24 24" fill="none" xmlns="http://www.w3.org/2000/svg">
<path d="M8.5293 6.75H20.5293M8.5293 12H20.5293M8.5293 17.25H20.5293M4.0293 6.75H4.0363V6.758H4.0293V6.75ZM4.4043 6.75C4.4043 6.84946 4.36479 6.94484 4.29446 7.01516C4.22414 7.08549 4.12875 7.125 4.0293 7.125C3.92984 7.125 3.83446 7.08549 3.76413 7.01516C3.69381 6.94484 3.6543 6.84946 3.6543 6.75C3.6543 6.65054 3.69381 6.55516 3.76413 6.48484C3.83446 6.41451 3.92984 6.375 4.0293 6.375C4.12875 6.375 4.22414 6.41451 4.29446 6.48484C4.36479 6.55516 4.4043 6.65054 4.4043 6.75ZM4.0293 12H4.0363V12.008H4.0293V12ZM4.4043 12C4.4043 12.0995 4.36479 12.1948 4.29446 12.2652C4.22414 12.3355 4.12875 12.375 4.0293 12.375C3.92984 12.375 3.83446 12.3355 3.76413 12.2652C3.69381 12.1948 3.6543 12.0995 3.6543 12C3.6543 11.9005 3.69381 11.8052 3.76413 11.7348C3.83446 11.6645 3.92984 11.625 4.0293 11.625C4.12875 11.625 4.22414 11.6645 4.29446 11.7348C4.36479 11.8052 4.4043 11.9005 4.4043 12ZM4.0293 17.25H4.0363V17.258H4.0293V17.25ZM4.4043 17.25C4.4043 17.3495 4.36479 17.4448 4.29446 17.5152C4.22414 17.5855 4.12875 17.625 4.0293 17.625C3.92984 17.625 3.83446 17.5855 3.76413 17.5152C3.69381 17.4448 3.6543 17.3495 3.6543 17.25C3.6543 17.1505 3.69381 17.0552 3.76413 16.9848C3.83446 16.9145 3.92984 16.875 4.0293 16.875C4.12875 16.875 4.22414 16.9145 4.29446 16.9848C4.36479 17.0552 4.4043 17.1505 4.4043 17.25Z" stroke="#838181" stroke-width="1.5" stroke-linecap="round" stroke-linejoin="round"/>
</svg>
