<svg width="32" height="32" viewBox="0 0 32 32" fill="none" xmlns="http://www.w3.org/2000/svg">
<mask id="mask0_6001_14492" style="mask-type:alpha" maskUnits="userSpaceOnUse" x="0" y="0" width="32" height="32">
<rect width="32" height="32" fill="#D9D9D9"/>
</mask>
<g mask="url(#mask0_6001_14492)">
<path d="M8 29.3332C6.88889 29.3332 5.94444 28.9443 5.16667 28.1665C4.38889 27.3887 4 26.4443 4 25.3332V21.3332H8V2.6665L10 4.6665L12 2.6665L14 4.6665L16 2.6665L18 4.6665L20 2.6665L22 4.6665L24 2.6665L26 4.6665L28 2.6665V25.3332C28 26.4443 27.6111 27.3887 26.8333 28.1665C26.0556 28.9443 25.1111 29.3332 24 29.3332H8ZM24 26.6665C24.3778 26.6665 24.6944 26.5387 24.95 26.2832C25.2056 26.0276 25.3333 25.7109 25.3333 25.3332V6.6665H10.6667V21.3332H22.6667V25.3332C22.6667 25.7109 22.7944 26.0276 23.05 26.2832C23.3056 26.5387 23.6222 26.6665 24 26.6665ZM12 11.9998V9.33317H20V11.9998H12ZM12 15.9998V13.3332H20V15.9998H12ZM22.6667 11.9998C22.2889 11.9998 21.9722 11.8721 21.7167 11.6165C21.4611 11.3609 21.3333 11.0443 21.3333 10.6665C21.3333 10.2887 21.4611 9.97206 21.7167 9.7165C21.9722 9.46095 22.2889 9.33317 22.6667 9.33317C23.0444 9.33317 23.3611 9.46095 23.6167 9.7165C23.8722 9.97206 24 10.2887 24 10.6665C24 11.0443 23.8722 11.3609 23.6167 11.6165C23.3611 11.8721 23.0444 11.9998 22.6667 11.9998ZM22.6667 15.9998C22.2889 15.9998 21.9722 15.8721 21.7167 15.6165C21.4611 15.3609 21.3333 15.0443 21.3333 14.6665C21.3333 14.2887 21.4611 13.9721 21.7167 13.7165C21.9722 13.4609 22.2889 13.3332 22.6667 13.3332C23.0444 13.3332 23.3611 13.4609 23.6167 13.7165C23.8722 13.9721 24 14.2887 24 14.6665C24 15.0443 23.8722 15.3609 23.6167 15.6165C23.3611 15.8721 23.0444 15.9998 22.6667 15.9998ZM8 26.6665H20V23.9998H6.66667V25.3332C6.66667 25.7109 6.79444 26.0276 7.05 26.2832C7.30556 26.5387 7.62222 26.6665 8 26.6665Z" fill="#625F5F"/>
</g>
</svg>
