<svg width="25" height="24" viewBox="0 0 25 24" fill="none" xmlns="http://www.w3.org/2000/svg">
<path d="M18.0417 15.7519C18.5485 15.4058 19.1429 15.2103 19.7562 15.188C20.3694 15.1656 20.9765 15.3174 21.5071 15.6256C22.0378 15.9339 22.4703 16.3861 22.7546 16.9299C23.039 17.4737 23.1635 18.0869 23.1139 18.6986C21.8141 19.1529 20.4335 19.3296 19.0612 19.2175C19.0569 17.9897 18.7034 16.7873 18.0417 15.753C17.4545 14.8319 16.6444 14.0739 15.6864 13.549C14.7284 13.0241 13.6535 12.7493 12.5612 12.75C11.469 12.7494 10.3943 13.0243 9.43654 13.5492C8.47876 14.0741 7.66883 14.8321 7.08166 15.753M19.0601 19.2164L19.0612 19.25C19.0612 19.4938 19.0482 19.7343 19.0211 19.9715C17.0552 21.0994 14.8276 21.6911 12.5612 21.6875C10.2103 21.6875 8.00358 21.0635 6.10125 19.9715C6.07339 19.7208 6.06001 19.4687 6.06116 19.2164M6.06116 19.2164C4.68926 19.3326 3.3094 19.1565 2.01058 18.6997C1.96112 18.0882 2.08576 17.4752 2.37006 16.9316C2.65436 16.3879 3.08673 15.9359 3.61716 15.6276C4.1476 15.3194 4.75444 15.1676 5.36752 15.1898C5.98061 15.212 6.57489 15.4072 7.08166 15.753M6.06116 19.2164C6.06505 17.9887 6.42042 16.7874 7.08166 15.753M15.8112 6.25C15.8112 7.11195 15.4688 7.9386 14.8593 8.5481C14.2498 9.15759 13.4231 9.5 12.5612 9.5C11.6992 9.5 10.8726 9.15759 10.2631 8.5481C9.65357 7.9386 9.31116 7.11195 9.31116 6.25C9.31116 5.38805 9.65357 4.5614 10.2631 3.9519C10.8726 3.34241 11.6992 3 12.5612 3C13.4231 3 14.2498 3.34241 14.8593 3.9519C15.4688 4.5614 15.8112 5.38805 15.8112 6.25ZM22.3112 9.5C22.3112 9.8201 22.2481 10.1371 22.1256 10.4328C22.0031 10.7285 21.8236 10.9972 21.5972 11.2236C21.3709 11.4499 21.1022 11.6295 20.8065 11.752C20.5107 11.8745 20.1938 11.9375 19.8737 11.9375C19.5536 11.9375 19.2366 11.8745 18.9409 11.752C18.6451 11.6295 18.3764 11.4499 18.1501 11.2236C17.9237 10.9972 17.7442 10.7285 17.6217 10.4328C17.4992 10.1371 17.4362 9.8201 17.4362 9.5C17.4362 8.85354 17.693 8.23355 18.1501 7.77643C18.6072 7.31931 19.2272 7.0625 19.8737 7.0625C20.5201 7.0625 21.1401 7.31931 21.5972 7.77643C22.0544 8.23355 22.3112 8.85354 22.3112 9.5ZM7.68616 9.5C7.68616 9.8201 7.62311 10.1371 7.50062 10.4328C7.37812 10.7285 7.19858 10.9972 6.97223 11.2236C6.74589 11.4499 6.47718 11.6295 6.18145 11.752C5.88572 11.8745 5.56876 11.9375 5.24866 11.9375C4.92856 11.9375 4.6116 11.8745 4.31587 11.752C4.02014 11.6295 3.75143 11.4499 3.52509 11.2236C3.29875 10.9972 3.1192 10.7285 2.99671 10.4328C2.87421 10.1371 2.81116 9.8201 2.81116 9.5C2.81116 8.85354 3.06797 8.23355 3.52509 7.77643C3.98221 7.31931 4.6022 7.0625 5.24866 7.0625C5.89513 7.0625 6.51511 7.31931 6.97223 7.77643C7.42935 8.23355 7.68616 8.85354 7.68616 9.5Z" stroke="#838181" stroke-width="1.5" stroke-linecap="round" stroke-linejoin="round"/>
</svg>
