<svg width="24" height="24" viewBox="0 0 24 24" fill="none" xmlns="http://www.w3.org/2000/svg">
<path d="M10.75 5.5H20.5M10.75 5.5C10.75 5.89782 10.592 6.27936 10.3107 6.56066C10.0294 6.84196 9.64782 7 9.25 7C8.85218 7 8.47064 6.84196 8.18934 6.56066C7.90804 6.27936 7.75 5.89782 7.75 5.5M10.75 5.5C10.75 5.10218 10.592 4.72064 10.3107 4.43934C10.0294 4.15804 9.64782 4 9.25 4C8.85218 4 8.47064 4.15804 8.18934 4.43934C7.90804 4.72064 7.75 5.10218 7.75 5.5M7.75 5.5H4M10.75 17.5H20.5M10.75 17.5C10.75 17.8978 10.592 18.2794 10.3107 18.5607C10.0294 18.842 9.64782 19 9.25 19C8.85218 19 8.47064 18.842 8.18934 18.5607C7.90804 18.2794 7.75 17.8978 7.75 17.5M10.75 17.5C10.75 17.1022 10.592 16.7206 10.3107 16.4393C10.0294 16.158 9.64782 16 9.25 16C8.85218 16 8.47064 16.158 8.18934 16.4393C7.90804 16.7206 7.75 17.1022 7.75 17.5M7.75 17.5H4M16.75 11.5H20.5M16.75 11.5C16.75 11.8978 16.592 12.2794 16.3107 12.5607C16.0294 12.842 15.6478 13 15.25 13C14.8522 13 14.4706 12.842 14.1893 12.5607C13.908 12.2794 13.75 11.8978 13.75 11.5M16.75 11.5C16.75 11.1022 16.592 10.7206 16.3107 10.4393C16.0294 10.158 15.6478 10 15.25 10C14.8522 10 14.4706 10.158 14.1893 10.4393C13.908 10.7206 13.75 11.1022 13.75 11.5M13.75 11.5H4" stroke="#737373" stroke-width="1.5" stroke-linecap="round" stroke-linejoin="round"/>
</svg>
