<svg width="24" height="24" viewBox="0 0 24 24" fill="none" xmlns="http://www.w3.org/2000/svg">
<path d="M4.19705 10.147C3.92604 12.2526 3.76455 14.3712 3.71327 16.494C6.54973 17.6966 9.26557 19.1734 11.8232 20.904C14.3812 19.1733 17.0974 17.6965 19.9342 16.494C19.8828 14.3712 19.7214 12.2526 19.4504 10.147M19.4504 10.147C20.3125 9.85304 21.1865 9.58104 22.0693 9.33304C18.8539 7.04529 15.4215 5.08893 11.8232 3.49304C8.22492 5.08927 4.79256 7.04596 1.57715 9.33404C2.45728 9.58067 3.33058 9.85177 4.19606 10.147C6.82544 11.0443 9.37664 12.1621 11.8232 13.489C14.2695 12.1621 16.8213 11.0442 19.4504 10.147ZM6.65043 15C6.84642 15 7.03438 14.921 7.17296 14.7804C7.31154 14.6397 7.3894 14.449 7.3894 14.25C7.3894 14.0511 7.31154 13.8604 7.17296 13.7197C7.03438 13.5791 6.84642 13.5 6.65043 13.5C6.45444 13.5 6.26648 13.5791 6.1279 13.7197C5.98931 13.8604 5.91146 14.0511 5.91146 14.25C5.91146 14.449 5.98931 14.6397 6.1279 14.7804C6.26648 14.921 6.45444 15 6.65043 15ZM6.65043 15V11.325C8.32221 10.2704 10.049 9.30831 11.8232 8.44304M4.91927 19.993C5.46903 19.4364 5.90499 18.7751 6.20208 18.0469C6.49918 17.3187 6.65154 16.5382 6.65043 15.75V14.25" stroke="#737373" stroke-width="1.5" stroke-linecap="round" stroke-linejoin="round"/>
</svg>
